<svg width="265" height="264" viewBox="0 0 265 264" fill="none" xmlns="http://www.w3.org/2000/svg">
<g id="ilustracao-e" clip-path="url(#clip0_199_2)">
<g id="col-5">
<path id="item" d="M212.004 34.0368L212.004 -4.74365L265 -4.74365L265 34.0368L260.79 34.0368L260.79 16.9142C260.79 14.5386 258.821 12.6129 256.392 12.6129L240.784 12.6129L240.784 32.1003L236.485 32.1003L236.485 12.6129L220.608 12.6129C218.179 12.6129 216.21 14.5386 216.21 16.9142L216.21 34.0368L212 34.0368L212.004 34.0368Z" fill="#800020" fill-opacity="0.14"/>
<path id="item_2" d="M212.004 101.256L212.004 62.4756L265 62.4756L265 101.256L260.79 101.256L260.79 84.1335C260.79 81.7578 258.821 79.8321 256.392 79.8321L240.784 79.8321L240.784 99.3196L236.485 99.3196L236.485 79.8321L220.608 79.8321C218.179 79.8321 216.21 81.7578 216.21 84.1335L216.21 101.256L212 101.256L212.004 101.256Z" fill="#800020" fill-opacity="0.14"/>
<path id="item_3" d="M212.004 168.476L212.004 129.695L265 129.695L265 168.476L260.79 168.476L260.79 151.353C260.79 148.978 258.821 147.052 256.392 147.052L240.784 147.052L240.784 166.539L236.485 166.539L236.485 147.052L220.608 147.052C218.179 147.052 216.21 148.978 216.21 151.353L216.21 168.476L212 168.476L212.004 168.476Z" fill="#800020" fill-opacity="0.14"/>
<path id="item_4" d="M212.004 235.696L212.004 196.915L265 196.915L265 235.696L260.79 235.696L260.79 218.573C260.79 216.197 258.821 214.272 256.392 214.272L240.784 214.272L240.784 233.759L236.485 233.759L236.485 214.272L220.608 214.272C218.179 214.272 216.21 216.197 216.21 218.573L216.21 235.696L212 235.696L212.004 235.696Z" fill="#800020" fill-opacity="0.14"/>
</g>
<g id="col-4">
<path id="item_5" d="M159.004 66.9997L159.004 28.2192L212 28.2192L212 66.9997L207.79 66.9997L207.79 49.8771C207.79 47.5015 205.821 45.5758 203.392 45.5758L187.784 45.5758L187.784 65.0632L183.485 65.0632L183.485 45.5758L167.608 45.5758C165.179 45.5758 163.21 47.5015 163.21 49.8771L163.21 66.9997L159 66.9997L159.004 66.9997Z" fill="#800020" fill-opacity="0.14"/>
<path id="item_6" d="M159.004 134.219L159.004 95.4385L212 95.4385L212 134.219L207.79 134.219L207.79 117.096C207.79 114.721 205.821 112.795 203.392 112.795L187.784 112.795L187.784 132.282L183.485 132.282L183.485 112.795L167.608 112.795C165.179 112.795 163.21 114.721 163.21 117.096L163.21 134.219L159 134.219L159.004 134.219Z" fill="#800020" fill-opacity="0.14"/>
<path id="item_7" d="M159.004 201.439L159.004 162.659L212 162.659L212 201.439L207.79 201.439L207.79 184.317C207.79 181.941 205.821 180.015 203.392 180.015L187.784 180.015L187.784 199.503L183.485 199.503L183.485 180.015L167.608 180.015C165.179 180.015 163.21 181.941 163.21 184.317L163.21 201.439L159 201.439L159.004 201.439Z" fill="#800020" fill-opacity="0.14"/>
<path id="item_8" d="M159.004 268.658L159.004 229.878L212 229.878L212 268.658L207.79 268.658L207.79 251.536C207.79 249.16 205.821 247.234 203.392 247.234L187.784 247.234L187.784 266.722L183.485 266.722L183.485 247.234L167.608 247.234C165.179 247.234 163.21 249.16 163.21 251.536L163.21 268.658L159 268.658L159.004 268.658Z" fill="#800020" fill-opacity="0.14"/>
</g>
<g id="col-3">
<path id="item_9" d="M106.004 34.0368L106.004 -4.74365L159 -4.74365L159 34.0368L154.79 34.0368L154.79 16.9142C154.79 14.5386 152.821 12.6129 150.392 12.6129L134.784 12.6129L134.784 32.1003L130.485 32.1003L130.485 12.6129L114.608 12.6129C112.179 12.6129 110.21 14.5386 110.21 16.9142L110.21 34.0368L106 34.0368L106.004 34.0368Z" fill="#800020" fill-opacity="0.14"/>
<path id="item_10" d="M106.004 101.256L106.004 62.4756L159 62.4756L159 101.256L154.79 101.256L154.79 84.1335C154.79 81.7578 152.821 79.8321 150.392 79.8321L134.784 79.8321L134.784 99.3196L130.485 99.3196L130.485 79.8321L114.608 79.8321C112.179 79.8321 110.21 81.7578 110.21 84.1335L110.21 101.256L106 101.256L106.004 101.256Z" fill="#800020" fill-opacity="0.14"/>
<path id="item-destaque" d="M106.004 168.476L106.004 129.695L159 129.695L159 168.476L154.79 168.476L154.79 151.353C154.79 148.978 152.821 147.052 150.392 147.052L134.784 147.052L134.784 166.539L130.485 166.539L130.485 147.052L114.608 147.052C112.179 147.052 110.21 148.978 110.21 151.353L110.21 168.476L106 168.476L106.004 168.476Z" fill="#800020"/>
<path id="item_11" d="M106.004 235.696L106.004 196.915L159 196.915L159 235.696L154.79 235.696L154.79 218.573C154.79 216.197 152.821 214.272 150.392 214.272L134.784 214.272L134.784 233.759L130.485 233.759L130.485 214.272L114.608 214.272C112.179 214.272 110.21 216.197 110.21 218.573L110.21 235.696L106 235.696L106.004 235.696Z" fill="#800020" fill-opacity="0.14"/>
</g>
<g id="col-2">
<path id="item_12" d="M53.0037 66.9997L53.0037 28.2192L106 28.2192L106 66.9997L101.79 66.9997L101.79 49.8771C101.79 47.5015 99.8208 45.5758 97.3918 45.5758L81.7836 45.5758L81.7836 65.0632L77.485 65.0632L77.485 45.5758L61.6082 45.5758C59.1792 45.5758 57.2103 47.5015 57.2103 49.8771L57.2103 66.9997L53 66.9997L53.0037 66.9997Z" fill="#800020" fill-opacity="0.14"/>
<path id="item_13" d="M53.0037 134.219L53.0037 95.4385L106 95.4385L106 134.219L101.79 134.219L101.79 117.096C101.79 114.721 99.8208 112.795 97.3918 112.795L81.7836 112.795L81.7836 132.282L77.485 132.282L77.485 112.795L61.6082 112.795C59.1792 112.795 57.2103 114.721 57.2103 117.096L57.2103 134.219L53 134.219L53.0037 134.219Z" fill="#800020" fill-opacity="0.14"/>
<path id="item_14" d="M53.0037 201.439L53.0037 162.659L106 162.659L106 201.439L101.79 201.439L101.79 184.317C101.79 181.941 99.8208 180.015 97.3918 180.015L81.7836 180.015L81.7836 199.503L77.485 199.503L77.485 180.015L61.6082 180.015C59.1792 180.015 57.2103 181.941 57.2103 184.317L57.2103 201.439L53 201.439L53.0037 201.439Z" fill="#800020" fill-opacity="0.14"/>
<path id="item_15" d="M53.0037 268.658L53.0037 229.878L106 229.878L106 268.658L101.79 268.658L101.79 251.536C101.79 249.16 99.8208 247.234 97.3918 247.234L81.7836 247.234L81.7836 266.722L77.485 266.722L77.485 247.234L61.6082 247.234C59.1792 247.234 57.2103 249.16 57.2103 251.536L57.2103 268.658L53 268.658L53.0037 268.658Z" fill="#800020" fill-opacity="0.14"/>
</g>
<g id="col-1">
<path id="item_16" d="M0.00367663 34.0368L0.00367832 -4.74365L53 -4.74365L53 34.0368L48.7897 34.0368L48.7897 16.9142C48.7897 14.5386 46.8208 12.6129 44.3918 12.6129L28.7836 12.6129L28.7836 32.1003L24.485 32.1003L24.485 12.6129L8.60822 12.6129C6.17922 12.6129 4.21026 14.5386 4.21026 16.9142L4.21026 34.0368L-1.65178e-06 34.0368L0.00367663 34.0368Z" fill="#800020" fill-opacity="0.14"/>
<path id="item_17" d="M0.00367663 101.256L0.00367832 62.4756L53 62.4756L53 101.256L48.7897 101.256L48.7897 84.1335C48.7897 81.7578 46.8208 79.8321 44.3918 79.8321L28.7836 79.8321L28.7836 99.3196L24.485 99.3196L24.485 79.8321L8.60822 79.8321C6.17922 79.8321 4.21026 81.7578 4.21026 84.1335L4.21026 101.256L-1.65178e-06 101.256L0.00367663 101.256Z" fill="#800020" fill-opacity="0.14"/>
<path id="item_18" d="M0.00367663 168.476L0.00367832 129.695L53 129.695L53 168.476L48.7897 168.476L48.7897 151.353C48.7897 148.978 46.8208 147.052 44.3918 147.052L28.7836 147.052L28.7836 166.539L24.485 166.539L24.485 147.052L8.60822 147.052C6.17922 147.052 4.21026 148.978 4.21026 151.353L4.21026 168.476L-1.65178e-06 168.476L0.00367663 168.476Z" fill="#800020" fill-opacity="0.14"/>
<path id="item_19" d="M0.00367663 235.696L0.00367832 196.915L53 196.915L53 235.696L48.7897 235.696L48.7897 218.573C48.7897 216.197 46.8208 214.272 44.3918 214.272L28.7836 214.272L28.7836 233.759L24.485 233.759L24.485 214.272L8.60822 214.272C6.17922 214.272 4.21026 216.197 4.21026 218.573L4.21026 235.696L-1.65178e-06 235.696L0.00367663 235.696Z" fill="#800020" fill-opacity="0.14"/>
</g>
</g>
<defs>
<clipPath id="clip0_199_2">
<rect width="265" height="264" fill="white"/>
</clipPath>
</defs>
</svg>
