<svg width="128" height="20" viewBox="0 0 128 20" fill="none" xmlns="http://www.w3.org/2000/svg">
<g id="logo-DelMobile" clip-path="url(#clip0_227_2)">
<g id="logo-DelMobile_2">
<g id="logo-group">
<g id="Mobile">
<path id="Vector_6" d="M45.4488 19.6663H43.8574V2.0332H47.6038L53.8451 14.2715L54.4273 15.4156H53.2297L60.4738 2.0332H64.0648V19.6663H60.2334V6.43527L60.7432 6.52439L53.6793 19.6663H52.2723L44.9101 5.20626L45.4488 5.26636V19.6663Z" fill="#7E171A"/>
<path id="Vector_5" d="M73.855 19.9959C72.4377 19.9959 71.1758 19.7306 70.0693 19.2021C68.9627 18.6736 68.0987 17.8694 67.4791 16.7917C66.8595 15.714 66.5508 14.3565 66.5508 12.7213C66.5508 11.086 66.8595 9.69739 67.4791 8.61967C68.0966 7.54195 68.9607 6.73781 70.0693 6.20931C71.1758 5.68081 72.4377 5.41553 73.855 5.41553C75.2724 5.41553 76.4887 5.68081 77.5662 6.20931C78.6437 6.73781 79.4912 7.54195 80.1108 8.61967C80.7283 9.69739 81.0391 11.0653 81.0391 12.7213C81.0391 14.3772 80.7303 15.714 80.1108 16.7917C79.4912 17.8694 78.6437 18.6736 77.5662 19.2021C76.4887 19.7306 75.2516 19.9959 73.855 19.9959ZM73.855 18.2881C74.4932 18.2881 75.0527 18.114 75.5314 17.7637C76.01 17.4156 76.3851 16.8352 76.6545 16.027C76.9238 15.2187 77.0585 14.1161 77.0585 12.7192C77.0585 11.3223 76.9238 10.1886 76.6545 9.38029C76.3851 8.572 76.01 7.99791 75.5314 7.65801C75.0527 7.31812 74.4932 7.14817 73.855 7.14817C73.2168 7.14817 72.6221 7.31812 72.1331 7.65801C71.6441 7.99791 71.2607 8.572 70.981 9.38029C70.7012 10.1886 70.5624 11.3016 70.5624 12.7192C70.5624 14.1368 70.7012 15.2187 70.981 16.027C71.2607 16.8352 71.6441 17.4135 72.1331 17.7637C72.6221 18.114 73.1961 18.2881 73.855 18.2881Z" fill="#7E171A"/>
<path id="Vector_4" d="M91.4554 19.9959C90.3178 19.9959 89.3646 19.7264 88.598 19.1876C87.8292 18.6487 87.2449 17.9503 86.847 17.0922H87.2366C87.2366 17.7513 87.1268 18.3047 86.9071 18.7544C86.6875 19.2041 86.4181 19.5088 86.099 19.6684H83.5254V1.16479H87.2967V8.43941L86.9382 7.75132C87.3568 7.03215 87.9805 6.46428 88.8093 6.04562C89.6382 5.62697 90.5313 5.41764 91.4886 5.41764C92.6655 5.41764 93.7389 5.68293 94.7066 6.21143C95.6743 6.73992 96.4534 7.53992 97.0419 8.60729C97.6304 9.67465 97.9246 11.0363 97.9246 12.6943C97.9246 14.3523 97.6304 15.7181 97.0419 16.7959C96.4534 17.8736 95.6701 18.6777 94.6921 19.2062C93.714 19.7347 92.6365 20 91.4596 20L91.4554 19.9959ZM90.6183 17.8404C91.2171 17.8404 91.7662 17.6912 92.2636 17.3907C92.7629 17.0922 93.1608 16.5679 93.4612 15.8197C93.7596 15.0715 93.9109 14.029 93.9109 12.6922C93.9109 11.3554 93.7617 10.3171 93.4612 9.57931C93.1629 8.84149 92.7629 8.31714 92.2636 8.00833C91.7642 7.69952 91.2151 7.54408 90.6183 7.54408C90.0215 7.54408 89.4413 7.69952 88.9419 8.00833C88.4426 8.31714 88.0447 8.84149 87.7442 9.57931C87.4459 10.3171 87.2946 11.3554 87.2946 12.6922C87.2946 14.029 87.4438 15.0715 87.7442 15.8197C88.0426 16.5679 88.4426 17.0922 88.9419 17.3907C89.4413 17.6891 89.9987 17.8404 90.6183 17.8404Z" fill="#7E171A"/>
<path id="Vector_3" d="M102.561 4.27979C101.983 4.27979 101.48 4.07047 101.051 3.65181C100.622 3.23316 100.406 2.73368 100.406 2.15544C100.406 1.5772 100.62 1.0487 101.051 0.627979C101.48 0.209326 101.983 0 102.561 0C103.139 0 103.639 0.209326 104.057 0.627979C104.476 1.04663 104.685 1.55648 104.685 2.15544C104.685 2.7544 104.476 3.23316 104.057 3.65181C103.639 4.07047 103.139 4.27979 102.561 4.27979ZM104.449 19.6663H100.678V5.74508H104.449V19.6663Z" fill="#7E171A"/>
<path id="Vector_2" d="M111.361 19.6663H107.59V2.0166H111.361V19.6663Z" fill="#7E171A"/>
<path id="Vector" d="M120.791 19.9959C119.793 19.9959 118.871 19.8508 118.023 19.5627C117.175 19.2746 116.442 18.829 115.822 18.2301C115.203 17.6311 114.72 16.8726 114.372 15.9544C114.022 15.0363 113.848 13.9482 113.848 12.6922C113.848 11.4363 114.032 10.3834 114.401 9.47356C114.77 8.56579 115.273 7.81138 115.912 7.21242C116.55 6.61346 117.287 6.16579 118.127 5.86527C118.964 5.56475 119.853 5.41553 120.791 5.41553C121.73 5.41553 122.631 5.55439 123.44 5.83418C124.248 6.11397 124.956 6.51812 125.566 7.04662C126.175 7.57511 126.647 8.21967 126.987 8.97822C127.327 9.73677 127.497 10.5845 127.497 11.5233C127.497 11.7223 127.491 11.9378 127.482 12.1679C127.472 12.3979 127.447 12.6425 127.408 12.9016H117.859C117.859 13.0404 117.855 13.171 117.845 13.2912C117.834 13.4114 117.83 13.5316 117.83 13.6498C117.83 15.3472 118.1 16.5244 118.638 17.1814C119.177 17.8404 119.896 18.17 120.793 18.17C121.591 18.17 122.211 17.9751 122.65 17.5855C123.089 17.1959 123.309 16.5223 123.309 15.5648V15.2062H127.261V15.4757C127.261 16.3544 126.991 17.1316 126.452 17.8114C125.914 18.4912 125.159 19.0238 124.192 19.4135C123.224 19.8031 122.091 19.9979 120.796 19.9979L120.791 19.9959ZM117.919 11.1047H123.456V10.8062C123.456 9.5689 123.205 8.66527 122.708 8.09739C122.209 7.52745 121.541 7.24351 120.702 7.24351C119.863 7.24351 119.192 7.53781 118.682 8.12641C118.172 8.71501 117.919 9.63729 117.919 10.8954V11.1047Z" fill="#7E171A"/>
</g>
<g id="Del">
<path id="Vector_9" d="M8.07301 19.6663H0V2.0332H8.07301C9.43025 2.0332 10.6777 2.20315 11.8153 2.54305C12.9529 2.88294 13.9309 3.4073 14.7494 4.11403C15.5679 4.82284 16.202 5.73476 16.6495 6.85393C17.0992 7.97103 17.323 9.30781 17.323 10.8663C17.323 12.4249 17.0992 13.7306 16.6495 14.8477C16.1999 15.9648 15.5679 16.8788 14.7494 17.5876C13.9309 18.2964 12.9529 18.8207 11.8153 19.1586C10.6777 19.4985 9.43025 19.6684 8.07301 19.6684V19.6663ZM5.90349 4.98864V16.7109C5.90349 17.5192 6.55829 18.1741 7.36642 18.1741H8.07301C9.03033 18.1741 9.90892 17.9544 10.7067 17.515C11.5045 17.0757 12.1427 16.2508 12.6213 15.2228C13.1 14.1948 13.3404 12.6197 13.3404 10.8643C13.3404 9.10885 13.1 7.50263 12.6213 6.47465C12.1427 5.44667 11.5045 4.6218 10.7067 4.18243C9.90892 3.74305 9.03033 3.52336 8.07301 3.52336H7.36642C6.55829 3.52336 5.90349 4.17828 5.90349 4.98657V4.98864Z" fill="#7E171A"/>
<path id="Vector_8" d="M26.7503 19.9959C25.7516 19.9959 24.8295 19.8508 23.982 19.5627C23.1345 19.2746 22.4009 18.829 21.7814 18.2301C21.1618 17.6311 20.679 16.8726 20.3309 15.9544C19.9807 15.0363 19.8066 13.9482 19.8066 12.6922C19.8066 11.4363 19.9911 10.3834 20.3599 9.47356C20.7287 8.56579 21.2323 7.81138 21.8705 7.21242C22.5087 6.61346 23.2464 6.16579 24.0856 5.86527C24.9227 5.56475 25.8117 5.41553 26.7503 5.41553C27.689 5.41553 28.5904 5.55439 29.3985 5.83418C30.2067 6.11397 30.9153 6.51812 31.5245 7.04662C32.1337 7.57511 32.6062 8.21967 32.946 8.97822C33.2858 9.73677 33.4557 10.5845 33.4557 11.5233C33.4557 11.7223 33.4495 11.9378 33.4412 12.1679C33.4309 12.3979 33.406 12.6425 33.3666 12.9016H23.8183C23.8183 13.0404 23.8141 13.171 23.8038 13.2912C23.7934 13.4114 23.7893 13.5316 23.7893 13.6498C23.7893 15.3472 24.0586 16.5244 24.5974 17.1814C25.1362 17.8404 25.8552 18.17 26.7524 18.17C27.5502 18.17 28.1698 17.9751 28.609 17.5855C29.0483 17.1959 29.268 16.5223 29.268 15.5648V15.2062H33.2195V15.4757C33.2195 16.3544 32.9501 17.1316 32.4114 17.8114C31.8726 18.4912 31.1184 19.0238 30.1507 19.4135C29.183 19.8031 28.0496 19.9979 26.7545 19.9979L26.7503 19.9959ZM23.8784 11.1047H29.4151V10.8062C29.4151 9.5689 29.1644 8.66527 28.6671 8.09739C28.1677 7.52745 27.5005 7.24351 26.6612 7.24351C25.822 7.24351 25.1507 7.53781 24.6409 8.12641C24.1312 8.71501 23.8784 9.63729 23.8784 10.8954V11.1047Z" fill="#7E171A"/>
<path id="Vector_7" d="M39.7146 19.6663H35.9434V2.0166H39.7146V19.6663Z" fill="#7E171A"/>
</g>
</g>
</g>
</g>
<defs>
<clipPath id="clip0_227_2">
<rect width="128" height="20" fill="white"/>
</clipPath>
</defs>
</svg>
